<mxfile host="app.diagrams.net" modified="2024-03-11T03:24:57.258Z" agent="Mozilla/5.0 (Windows NT 10.0; Win64; x64) AppleWebKit/537.36 (KHTML, like Gecko) Chrome/120.0.0.0 Safari/537.36" etag="mRYHrJ3at-jP4FcYD_Ts" version="24.0.4" type="google">
  <diagram name="Trang-1" id="Qb2UkHAhqXrSYQ87C7z4">
    <mxGraphModel grid="1" page="1" gridSize="10" guides="1" tooltips="1" connect="1" arrows="1" fold="1" pageScale="1" pageWidth="827" pageHeight="1169" math="0" shadow="0">
      <root>
        <mxCell id="0" />
        <mxCell id="1" parent="0" />
        <mxCell id="z2Zu9x2-zzWwm6l-Nut3-3" value="d tong(a,b,c)" style="text;html=1;align=center;verticalAlign=middle;resizable=0;points=[];autosize=1;strokeColor=none;fillColor=none;" vertex="1" parent="1">
          <mxGeometry x="-800" y="8" width="90" height="30" as="geometry" />
        </mxCell>
        <mxCell id="z2Zu9x2-zzWwm6l-Nut3-9" value="" style="edgeStyle=orthogonalEdgeStyle;rounded=0;orthogonalLoop=1;jettySize=auto;html=1;" edge="1" parent="1" source="z2Zu9x2-zzWwm6l-Nut3-4" target="z2Zu9x2-zzWwm6l-Nut3-8">
          <mxGeometry relative="1" as="geometry" />
        </mxCell>
        <mxCell id="z2Zu9x2-zzWwm6l-Nut3-4" value="Start" style="ellipse;whiteSpace=wrap;html=1;" vertex="1" parent="1">
          <mxGeometry x="-510" width="117" height="80" as="geometry" />
        </mxCell>
        <mxCell id="z2Zu9x2-zzWwm6l-Nut3-11" value="" style="edgeStyle=orthogonalEdgeStyle;rounded=0;orthogonalLoop=1;jettySize=auto;html=1;" edge="1" parent="1" source="z2Zu9x2-zzWwm6l-Nut3-8" target="z2Zu9x2-zzWwm6l-Nut3-10">
          <mxGeometry relative="1" as="geometry" />
        </mxCell>
        <mxCell id="z2Zu9x2-zzWwm6l-Nut3-8" value="Input a,b ,c" style="shape=parallelogram;perimeter=parallelogramPerimeter;whiteSpace=wrap;html=1;fixedSize=1;" vertex="1" parent="1">
          <mxGeometry x="-511.5" y="170" width="120" height="60" as="geometry" />
        </mxCell>
        <mxCell id="z2Zu9x2-zzWwm6l-Nut3-13" value="" style="edgeStyle=orthogonalEdgeStyle;rounded=0;orthogonalLoop=1;jettySize=auto;html=1;" edge="1" parent="1" source="z2Zu9x2-zzWwm6l-Nut3-10" target="z2Zu9x2-zzWwm6l-Nut3-12">
          <mxGeometry relative="1" as="geometry" />
        </mxCell>
        <mxCell id="z2Zu9x2-zzWwm6l-Nut3-10" value="d=a+b+c" style="whiteSpace=wrap;html=1;" vertex="1" parent="1">
          <mxGeometry x="-511.5" y="310" width="120" height="60" as="geometry" />
        </mxCell>
        <mxCell id="z2Zu9x2-zzWwm6l-Nut3-18" value="" style="edgeStyle=orthogonalEdgeStyle;rounded=0;orthogonalLoop=1;jettySize=auto;html=1;" edge="1" parent="1" source="z2Zu9x2-zzWwm6l-Nut3-12" target="z2Zu9x2-zzWwm6l-Nut3-17">
          <mxGeometry relative="1" as="geometry" />
        </mxCell>
        <mxCell id="z2Zu9x2-zzWwm6l-Nut3-12" value="Display d" style="shape=parallelogram;perimeter=parallelogramPerimeter;whiteSpace=wrap;html=1;fixedSize=1;" vertex="1" parent="1">
          <mxGeometry x="-511.5" y="450" width="120" height="60" as="geometry" />
        </mxCell>
        <mxCell id="z2Zu9x2-zzWwm6l-Nut3-17" value="Stop" style="ellipse;whiteSpace=wrap;html=1;" vertex="1" parent="1">
          <mxGeometry x="-491.5" y="580" width="80" height="80" as="geometry" />
        </mxCell>
        <mxCell id="z2Zu9x2-zzWwm6l-Nut3-19" value="P chu vi(R)" style="text;html=1;align=center;verticalAlign=middle;whiteSpace=wrap;rounded=0;" vertex="1" parent="1">
          <mxGeometry x="-800" y="690" width="70" height="30" as="geometry" />
        </mxCell>
        <mxCell id="z2Zu9x2-zzWwm6l-Nut3-22" value="" style="edgeStyle=orthogonalEdgeStyle;rounded=0;orthogonalLoop=1;jettySize=auto;html=1;" edge="1" parent="1" source="z2Zu9x2-zzWwm6l-Nut3-20" target="z2Zu9x2-zzWwm6l-Nut3-21">
          <mxGeometry relative="1" as="geometry" />
        </mxCell>
        <mxCell id="z2Zu9x2-zzWwm6l-Nut3-20" value="Starts" style="ellipse;whiteSpace=wrap;html=1;" vertex="1" parent="1">
          <mxGeometry x="-511.5" y="720" width="120" height="80" as="geometry" />
        </mxCell>
        <mxCell id="z2Zu9x2-zzWwm6l-Nut3-24" value="" style="edgeStyle=orthogonalEdgeStyle;rounded=0;orthogonalLoop=1;jettySize=auto;html=1;" edge="1" parent="1" source="z2Zu9x2-zzWwm6l-Nut3-21" target="z2Zu9x2-zzWwm6l-Nut3-23">
          <mxGeometry relative="1" as="geometry" />
        </mxCell>
        <mxCell id="z2Zu9x2-zzWwm6l-Nut3-21" value="Input R" style="shape=parallelogram;perimeter=parallelogramPerimeter;whiteSpace=wrap;html=1;fixedSize=1;" vertex="1" parent="1">
          <mxGeometry x="-511.5" y="890" width="120" height="60" as="geometry" />
        </mxCell>
        <mxCell id="z2Zu9x2-zzWwm6l-Nut3-26" value="" style="edgeStyle=orthogonalEdgeStyle;rounded=0;orthogonalLoop=1;jettySize=auto;html=1;" edge="1" parent="1" source="z2Zu9x2-zzWwm6l-Nut3-23" target="z2Zu9x2-zzWwm6l-Nut3-25">
          <mxGeometry relative="1" as="geometry" />
        </mxCell>
        <mxCell id="z2Zu9x2-zzWwm6l-Nut3-23" value="P=2*3.14*R" style="whiteSpace=wrap;html=1;" vertex="1" parent="1">
          <mxGeometry x="-511.5" y="1030" width="120" height="60" as="geometry" />
        </mxCell>
        <mxCell id="z2Zu9x2-zzWwm6l-Nut3-28" value="" style="edgeStyle=orthogonalEdgeStyle;rounded=0;orthogonalLoop=1;jettySize=auto;html=1;" edge="1" parent="1" source="z2Zu9x2-zzWwm6l-Nut3-25" target="z2Zu9x2-zzWwm6l-Nut3-27">
          <mxGeometry relative="1" as="geometry" />
        </mxCell>
        <mxCell id="z2Zu9x2-zzWwm6l-Nut3-25" value="Display P" style="shape=parallelogram;perimeter=parallelogramPerimeter;whiteSpace=wrap;html=1;fixedSize=1;" vertex="1" parent="1">
          <mxGeometry x="-511.5" y="1170" width="120" height="60" as="geometry" />
        </mxCell>
        <mxCell id="z2Zu9x2-zzWwm6l-Nut3-27" value="Stop" style="ellipse;whiteSpace=wrap;html=1;" vertex="1" parent="1">
          <mxGeometry x="-491.5" y="1300" width="80" height="80" as="geometry" />
        </mxCell>
        <mxCell id="z2Zu9x2-zzWwm6l-Nut3-29" value="B sosanhdientich(E,R)" style="text;html=1;align=center;verticalAlign=middle;whiteSpace=wrap;rounded=0;" vertex="1" parent="1">
          <mxGeometry x="-795" y="1450" width="125" height="30" as="geometry" />
        </mxCell>
        <mxCell id="z2Zu9x2-zzWwm6l-Nut3-32" value="" style="edgeStyle=orthogonalEdgeStyle;rounded=0;orthogonalLoop=1;jettySize=auto;html=1;" edge="1" parent="1" source="z2Zu9x2-zzWwm6l-Nut3-30" target="z2Zu9x2-zzWwm6l-Nut3-31">
          <mxGeometry relative="1" as="geometry" />
        </mxCell>
        <mxCell id="z2Zu9x2-zzWwm6l-Nut3-30" value="Start" style="ellipse;whiteSpace=wrap;html=1;" vertex="1" parent="1">
          <mxGeometry x="-513" y="1480" width="120" height="80" as="geometry" />
        </mxCell>
        <mxCell id="z2Zu9x2-zzWwm6l-Nut3-34" value="" style="edgeStyle=orthogonalEdgeStyle;rounded=0;orthogonalLoop=1;jettySize=auto;html=1;" edge="1" parent="1" source="z2Zu9x2-zzWwm6l-Nut3-31" target="z2Zu9x2-zzWwm6l-Nut3-33">
          <mxGeometry relative="1" as="geometry" />
        </mxCell>
        <mxCell id="z2Zu9x2-zzWwm6l-Nut3-31" value="Input E,R" style="shape=parallelogram;perimeter=parallelogramPerimeter;whiteSpace=wrap;html=1;fixedSize=1;" vertex="1" parent="1">
          <mxGeometry x="-513" y="1650" width="120" height="60" as="geometry" />
        </mxCell>
        <mxCell id="z2Zu9x2-zzWwm6l-Nut3-38" value="" style="edgeStyle=orthogonalEdgeStyle;rounded=0;orthogonalLoop=1;jettySize=auto;html=1;" edge="1" parent="1" source="z2Zu9x2-zzWwm6l-Nut3-33" target="z2Zu9x2-zzWwm6l-Nut3-37">
          <mxGeometry relative="1" as="geometry" />
        </mxCell>
        <mxCell id="z2Zu9x2-zzWwm6l-Nut3-33" value="A1=E*E&lt;div&gt;A2=3.14*R*R&lt;/div&gt;" style="whiteSpace=wrap;html=1;" vertex="1" parent="1">
          <mxGeometry x="-513" y="1790" width="120" height="60" as="geometry" />
        </mxCell>
        <mxCell id="z2Zu9x2-zzWwm6l-Nut3-45" value="" style="edgeStyle=orthogonalEdgeStyle;rounded=0;orthogonalLoop=1;jettySize=auto;html=1;" edge="1" parent="1" source="z2Zu9x2-zzWwm6l-Nut3-37" target="z2Zu9x2-zzWwm6l-Nut3-44">
          <mxGeometry relative="1" as="geometry" />
        </mxCell>
        <mxCell id="z2Zu9x2-zzWwm6l-Nut3-46" value="NO" style="edgeLabel;html=1;align=center;verticalAlign=middle;resizable=0;points=[];" connectable="0" vertex="1" parent="z2Zu9x2-zzWwm6l-Nut3-45">
          <mxGeometry x="-0.5579" y="-1" relative="1" as="geometry">
            <mxPoint as="offset" />
          </mxGeometry>
        </mxCell>
        <mxCell id="z2Zu9x2-zzWwm6l-Nut3-48" value="YES" style="edgeStyle=orthogonalEdgeStyle;rounded=0;orthogonalLoop=1;jettySize=auto;html=1;" edge="1" parent="1" source="z2Zu9x2-zzWwm6l-Nut3-37" target="z2Zu9x2-zzWwm6l-Nut3-47">
          <mxGeometry relative="1" as="geometry" />
        </mxCell>
        <mxCell id="z2Zu9x2-zzWwm6l-Nut3-37" value="A1&lt;font style=&quot;font-size: 14px;&quot;&gt;≥A2&lt;/font&gt;" style="rhombus;whiteSpace=wrap;html=1;" vertex="1" parent="1">
          <mxGeometry x="-510" y="1920" width="120" height="100" as="geometry" />
        </mxCell>
        <mxCell id="z2Zu9x2-zzWwm6l-Nut3-44" value="B false" style="whiteSpace=wrap;html=1;" vertex="1" parent="1">
          <mxGeometry x="-250" y="2130" width="120" height="60" as="geometry" />
        </mxCell>
        <mxCell id="z2Zu9x2-zzWwm6l-Nut3-50" value="" style="edgeStyle=orthogonalEdgeStyle;rounded=0;orthogonalLoop=1;jettySize=auto;html=1;" edge="1" parent="1" source="z2Zu9x2-zzWwm6l-Nut3-47" target="z2Zu9x2-zzWwm6l-Nut3-49">
          <mxGeometry relative="1" as="geometry" />
        </mxCell>
        <mxCell id="z2Zu9x2-zzWwm6l-Nut3-47" value="B true" style="whiteSpace=wrap;html=1;" vertex="1" parent="1">
          <mxGeometry x="-510" y="2120" width="120" height="60" as="geometry" />
        </mxCell>
        <mxCell id="z2Zu9x2-zzWwm6l-Nut3-53" value="" style="edgeStyle=orthogonalEdgeStyle;rounded=0;orthogonalLoop=1;jettySize=auto;html=1;entryX=0.5;entryY=0;entryDx=0;entryDy=0;" edge="1" parent="1" source="z2Zu9x2-zzWwm6l-Nut3-49" target="z2Zu9x2-zzWwm6l-Nut3-49">
          <mxGeometry relative="1" as="geometry">
            <Array as="points">
              <mxPoint x="-450" y="2240" />
              <mxPoint x="-450" y="2240" />
            </Array>
          </mxGeometry>
        </mxCell>
        <mxCell id="z2Zu9x2-zzWwm6l-Nut3-55" value="" style="edgeStyle=orthogonalEdgeStyle;rounded=0;orthogonalLoop=1;jettySize=auto;html=1;" edge="1" parent="1" source="z2Zu9x2-zzWwm6l-Nut3-49" target="z2Zu9x2-zzWwm6l-Nut3-54">
          <mxGeometry relative="1" as="geometry" />
        </mxCell>
        <mxCell id="z2Zu9x2-zzWwm6l-Nut3-49" value="Display B" style="shape=parallelogram;perimeter=parallelogramPerimeter;whiteSpace=wrap;html=1;fixedSize=1;" vertex="1" parent="1">
          <mxGeometry x="-510" y="2260" width="120" height="60" as="geometry" />
        </mxCell>
        <mxCell id="z2Zu9x2-zzWwm6l-Nut3-52" value="" style="edgeStyle=segmentEdgeStyle;endArrow=classic;html=1;curved=0;rounded=0;endSize=8;startSize=8;entryX=0.5;entryY=0;entryDx=0;entryDy=0;" edge="1" parent="1" target="z2Zu9x2-zzWwm6l-Nut3-49">
          <mxGeometry width="50" height="50" relative="1" as="geometry">
            <mxPoint x="-200" y="2180" as="sourcePoint" />
            <mxPoint x="-450" y="2250" as="targetPoint" />
            <Array as="points">
              <mxPoint x="-200" y="2220" />
              <mxPoint x="-450" y="2220" />
            </Array>
          </mxGeometry>
        </mxCell>
        <mxCell id="z2Zu9x2-zzWwm6l-Nut3-54" value="Stop" style="ellipse;whiteSpace=wrap;html=1;" vertex="1" parent="1">
          <mxGeometry x="-490" y="2390" width="80" height="80" as="geometry" />
        </mxCell>
        <mxCell id="z2Zu9x2-zzWwm6l-Nut3-56" value="B sosanhtuoi(D1,M1,Y1,D2,M2,Y2)" style="text;html=1;align=center;verticalAlign=middle;whiteSpace=wrap;rounded=0;" vertex="1" parent="1">
          <mxGeometry x="-827" y="2530" width="217" height="30" as="geometry" />
        </mxCell>
        <mxCell id="z2Zu9x2-zzWwm6l-Nut3-60" value="" style="edgeStyle=orthogonalEdgeStyle;rounded=0;orthogonalLoop=1;jettySize=auto;html=1;" edge="1" parent="1" source="z2Zu9x2-zzWwm6l-Nut3-57" target="z2Zu9x2-zzWwm6l-Nut3-59">
          <mxGeometry relative="1" as="geometry" />
        </mxCell>
        <mxCell id="z2Zu9x2-zzWwm6l-Nut3-57" value="Start" style="ellipse;whiteSpace=wrap;html=1;" vertex="1" parent="1">
          <mxGeometry x="-513" y="2560" width="120" height="80" as="geometry" />
        </mxCell>
        <mxCell id="z2Zu9x2-zzWwm6l-Nut3-58" value="B=1: người 1 nhỏ tuổi hơn người 2&lt;div&gt;B=2 người 1 bằng tuổi người 2&lt;br&gt;&lt;div&gt;&lt;div&gt;B=3: người 1 lớn tuổi hơn người 2&lt;/div&gt;&lt;/div&gt;&lt;/div&gt;" style="text;html=1;align=center;verticalAlign=middle;whiteSpace=wrap;rounded=0;" vertex="1" parent="1">
          <mxGeometry x="-280" y="2560" width="240" height="120" as="geometry" />
        </mxCell>
        <mxCell id="z2Zu9x2-zzWwm6l-Nut3-62" value="" style="edgeStyle=orthogonalEdgeStyle;rounded=0;orthogonalLoop=1;jettySize=auto;html=1;" edge="1" parent="1" source="z2Zu9x2-zzWwm6l-Nut3-59" target="z2Zu9x2-zzWwm6l-Nut3-61">
          <mxGeometry relative="1" as="geometry" />
        </mxCell>
        <mxCell id="z2Zu9x2-zzWwm6l-Nut3-59" value="Input D1,M1,Y1,D2,M2,Y2" style="shape=parallelogram;perimeter=parallelogramPerimeter;whiteSpace=wrap;html=1;fixedSize=1;" vertex="1" parent="1">
          <mxGeometry x="-540" y="2730" width="170" height="70" as="geometry" />
        </mxCell>
        <mxCell id="z2Zu9x2-zzWwm6l-Nut3-64" value="" style="edgeStyle=orthogonalEdgeStyle;rounded=0;orthogonalLoop=1;jettySize=auto;html=1;" edge="1" parent="1" source="z2Zu9x2-zzWwm6l-Nut3-61" target="z2Zu9x2-zzWwm6l-Nut3-63">
          <mxGeometry relative="1" as="geometry" />
        </mxCell>
        <mxCell id="z2Zu9x2-zzWwm6l-Nut3-61" value="A1=M1-M2+(Y1-Y2)*12&lt;div&gt;A2=D1-D2&lt;/div&gt;" style="whiteSpace=wrap;html=1;" vertex="1" parent="1">
          <mxGeometry x="-560" y="2885" width="200" height="75" as="geometry" />
        </mxCell>
        <mxCell id="z2Zu9x2-zzWwm6l-Nut3-66" value="YES" style="edgeStyle=orthogonalEdgeStyle;rounded=0;orthogonalLoop=1;jettySize=auto;html=1;" edge="1" parent="1" source="z2Zu9x2-zzWwm6l-Nut3-63" target="z2Zu9x2-zzWwm6l-Nut3-65">
          <mxGeometry relative="1" as="geometry" />
        </mxCell>
        <mxCell id="z2Zu9x2-zzWwm6l-Nut3-68" value="YES" style="edgeStyle=orthogonalEdgeStyle;rounded=0;orthogonalLoop=1;jettySize=auto;html=1;" edge="1" parent="1" source="z2Zu9x2-zzWwm6l-Nut3-63">
          <mxGeometry relative="1" as="geometry">
            <mxPoint x="-340" y="3077.5" as="targetPoint" />
          </mxGeometry>
        </mxCell>
        <mxCell id="z2Zu9x2-zzWwm6l-Nut3-71" value="NO" style="edgeStyle=orthogonalEdgeStyle;rounded=0;orthogonalLoop=1;jettySize=auto;html=1;" edge="1" parent="1" source="z2Zu9x2-zzWwm6l-Nut3-63">
          <mxGeometry relative="1" as="geometry">
            <mxPoint x="-340" y="3077.5" as="targetPoint" />
          </mxGeometry>
        </mxCell>
        <mxCell id="z2Zu9x2-zzWwm6l-Nut3-63" value="A1&amp;lt;0?" style="rhombus;whiteSpace=wrap;html=1;" vertex="1" parent="1">
          <mxGeometry x="-500" y="3037.5" width="80" height="80" as="geometry" />
        </mxCell>
        <mxCell id="z2Zu9x2-zzWwm6l-Nut3-83" value="" style="edgeStyle=orthogonalEdgeStyle;rounded=0;orthogonalLoop=1;jettySize=auto;html=1;" edge="1" parent="1" source="z2Zu9x2-zzWwm6l-Nut3-65">
          <mxGeometry relative="1" as="geometry">
            <mxPoint x="-489.91666666666674" y="3541" as="targetPoint" />
            <Array as="points">
              <mxPoint x="-710" y="3541" />
            </Array>
          </mxGeometry>
        </mxCell>
        <mxCell id="z2Zu9x2-zzWwm6l-Nut3-65" value="B=3" style="whiteSpace=wrap;html=1;" vertex="1" parent="1">
          <mxGeometry x="-800" y="3210" width="120" height="60" as="geometry" />
        </mxCell>
        <mxCell id="z2Zu9x2-zzWwm6l-Nut3-70" value="YES" style="edgeStyle=orthogonalEdgeStyle;rounded=0;orthogonalLoop=1;jettySize=auto;html=1;" edge="1" parent="1" target="z2Zu9x2-zzWwm6l-Nut3-69">
          <mxGeometry relative="1" as="geometry">
            <mxPoint x="-220" y="3077.5" as="sourcePoint" />
          </mxGeometry>
        </mxCell>
        <mxCell id="z2Zu9x2-zzWwm6l-Nut3-85" value="" style="edgeStyle=orthogonalEdgeStyle;rounded=0;orthogonalLoop=1;jettySize=auto;html=1;" edge="1" parent="1" source="z2Zu9x2-zzWwm6l-Nut3-69">
          <mxGeometry relative="1" as="geometry">
            <mxPoint x="-389.58333333333326" y="3540" as="targetPoint" />
            <Array as="points">
              <mxPoint x="-70" y="3540" />
            </Array>
          </mxGeometry>
        </mxCell>
        <mxCell id="z2Zu9x2-zzWwm6l-Nut3-69" value="B=1" style="whiteSpace=wrap;html=1;" vertex="1" parent="1">
          <mxGeometry x="-130" y="3210" width="120" height="60" as="geometry" />
        </mxCell>
        <mxCell id="z2Zu9x2-zzWwm6l-Nut3-74" value="NO" style="edgeStyle=orthogonalEdgeStyle;rounded=0;orthogonalLoop=1;jettySize=auto;html=1;" edge="1" parent="1" source="z2Zu9x2-zzWwm6l-Nut3-72" target="z2Zu9x2-zzWwm6l-Nut3-73">
          <mxGeometry relative="1" as="geometry" />
        </mxCell>
        <mxCell id="z2Zu9x2-zzWwm6l-Nut3-72" value="A1&amp;gt;0?" style="rhombus;whiteSpace=wrap;html=1;" vertex="1" parent="1">
          <mxGeometry x="-340" y="3037.5" width="120" height="82.5" as="geometry" />
        </mxCell>
        <mxCell id="z2Zu9x2-zzWwm6l-Nut3-75" value="YES" style="edgeStyle=orthogonalEdgeStyle;rounded=0;orthogonalLoop=1;jettySize=auto;html=1;" edge="1" parent="1" source="z2Zu9x2-zzWwm6l-Nut3-73" target="z2Zu9x2-zzWwm6l-Nut3-69">
          <mxGeometry relative="1" as="geometry" />
        </mxCell>
        <mxCell id="z2Zu9x2-zzWwm6l-Nut3-77" value="NO" style="edgeStyle=orthogonalEdgeStyle;rounded=0;orthogonalLoop=1;jettySize=auto;html=1;" edge="1" parent="1" source="z2Zu9x2-zzWwm6l-Nut3-73" target="z2Zu9x2-zzWwm6l-Nut3-76">
          <mxGeometry relative="1" as="geometry" />
        </mxCell>
        <mxCell id="z2Zu9x2-zzWwm6l-Nut3-73" value="A2&amp;gt;0?" style="rhombus;whiteSpace=wrap;html=1;" vertex="1" parent="1">
          <mxGeometry x="-320" y="3201.25" width="80" height="80" as="geometry" />
        </mxCell>
        <mxCell id="z2Zu9x2-zzWwm6l-Nut3-79" value="NO" style="edgeStyle=orthogonalEdgeStyle;rounded=0;orthogonalLoop=1;jettySize=auto;html=1;" edge="1" parent="1" source="z2Zu9x2-zzWwm6l-Nut3-76" target="z2Zu9x2-zzWwm6l-Nut3-78">
          <mxGeometry relative="1" as="geometry">
            <Array as="points">
              <mxPoint x="-460" y="3326" />
              <mxPoint x="-440" y="3326" />
            </Array>
          </mxGeometry>
        </mxCell>
        <mxCell id="z2Zu9x2-zzWwm6l-Nut3-90" value="YES" style="edgeStyle=orthogonalEdgeStyle;rounded=0;orthogonalLoop=1;jettySize=auto;html=1;" edge="1" parent="1" source="z2Zu9x2-zzWwm6l-Nut3-76">
          <mxGeometry relative="1" as="geometry">
            <mxPoint x="-680" y="3240" as="targetPoint" />
          </mxGeometry>
        </mxCell>
        <mxCell id="z2Zu9x2-zzWwm6l-Nut3-76" value="A2&amp;gt;0?" style="rhombus;whiteSpace=wrap;html=1;" vertex="1" parent="1">
          <mxGeometry x="-500" y="3200" width="80" height="80" as="geometry" />
        </mxCell>
        <mxCell id="z2Zu9x2-zzWwm6l-Nut3-81" value="" style="edgeStyle=orthogonalEdgeStyle;rounded=0;orthogonalLoop=1;jettySize=auto;html=1;" edge="1" parent="1" source="z2Zu9x2-zzWwm6l-Nut3-78" target="z2Zu9x2-zzWwm6l-Nut3-80">
          <mxGeometry relative="1" as="geometry" />
        </mxCell>
        <mxCell id="z2Zu9x2-zzWwm6l-Nut3-78" value="B=2" style="whiteSpace=wrap;html=1;" vertex="1" parent="1">
          <mxGeometry x="-500" y="3371.25" width="120" height="60" as="geometry" />
        </mxCell>
        <mxCell id="z2Zu9x2-zzWwm6l-Nut3-87" value="" style="edgeStyle=orthogonalEdgeStyle;rounded=0;orthogonalLoop=1;jettySize=auto;html=1;" edge="1" parent="1" source="z2Zu9x2-zzWwm6l-Nut3-80">
          <mxGeometry relative="1" as="geometry">
            <mxPoint x="-440" y="3641.25" as="targetPoint" />
          </mxGeometry>
        </mxCell>
        <mxCell id="z2Zu9x2-zzWwm6l-Nut3-80" value="Display B" style="shape=parallelogram;perimeter=parallelogramPerimeter;whiteSpace=wrap;html=1;fixedSize=1;" vertex="1" parent="1">
          <mxGeometry x="-500" y="3511.25" width="120" height="60" as="geometry" />
        </mxCell>
        <mxCell id="z2Zu9x2-zzWwm6l-Nut3-88" value="Stop" style="ellipse;whiteSpace=wrap;html=1;" vertex="1" parent="1">
          <mxGeometry x="-500" y="3640" width="120" height="80" as="geometry" />
        </mxCell>
      </root>
    </mxGraphModel>
  </diagram>
</mxfile>
